<svg width="21" height="10" viewBox="0 0 21 10" fill="none" xmlns="http://www.w3.org/2000/svg">
<path d="M6.3202 -0.000109673C7.35486 -0.000109673 8.1602 0.346557 8.7362 1.03989C9.32286 1.73322 9.6162 2.67189 9.6162 3.85589V9.08789H6.0802V4.30389C6.0802 3.87722 5.96286 3.54122 5.7282 3.29589C5.5042 3.03989 5.2002 2.91189 4.8162 2.91189C4.42153 2.91189 4.1122 3.03989 3.8882 3.29589C3.6642 3.54122 3.5522 3.87722 3.5522 4.30389V9.08789H0.000195324V0.0638905H3.5522V1.43989C3.82953 1.01322 4.19753 0.666557 4.6562 0.39989C5.12553 0.133224 5.6802 -0.000109673 6.3202 -0.000109673ZM15.7324 5.71189L17.1724 0.0638905H20.9484L17.9404 9.08789H13.5084L10.5004 0.0638905H14.2764L15.7324 5.71189Z" fill="black"/>
</svg>
